<svg width="46" height="19" viewBox="0 0 46 19" fill="none" xmlns="http://www.w3.org/2000/svg">
<mask id="mask0" mask-type="alpha" maskUnits="userSpaceOnUse" x="0" y="0" width="46" height="19">
<path d="M46 9.82429C46 25.5495 35.7026 15.5 23 15.5C10.2975 15.5 0 25.5495 0 9.82429C0 -5.90094 10.2975 1.96964 23 1.96964C35.7026 1.96964 46 -5.90094 46 9.82429Z" fill="#C4C4C4"/>
</mask>
<g mask="url(#mask0)">
<path d="M46 9.82429C46 25.5495 35.7026 15.5 23 15.5C10.2975 15.5 0 25.5495 0 9.82429C0 -5.90094 10.2975 1.96964 23 1.96964C35.7026 1.96964 46 -5.90094 46 9.82429Z" fill="#4C1B63" fill-opacity="0.5"/>
<line y1="-0.25" x2="8.57755" y2="-0.25" transform="matrix(0 1 0.948843 -0.315748 32 9)" stroke="white" stroke-width="0.5"/>
<line x1="35.25" y1="8" x2="35.25" y2="19" stroke="white" stroke-width="0.5"/>
<line y1="-0.25" x2="8.57755" y2="-0.25" transform="matrix(0 1 0.948843 -0.315748 38 11)" stroke="white" stroke-width="0.5"/>
<line y1="-0.25" x2="13.5435" y2="-0.25" transform="matrix(0 1 0.948843 -0.315748 29 4)" stroke="white" stroke-width="0.5"/>
<line y1="-0.25" x2="11.7377" y2="-0.25" transform="matrix(0 1 0.948843 -0.315748 26 6)" stroke="white" stroke-width="0.5"/>
<line y1="-0.25" x2="9.029" y2="-0.25" transform="matrix(0 1 0.948843 -0.315748 23 8)" stroke="white" stroke-width="0.5"/>
<line y1="-0.25" x2="9.48045" y2="-0.25" transform="matrix(0 1 0.948843 -0.315748 20.13 7.50296)" stroke="white" stroke-width="0.5"/>
<line y1="-0.25" x2="12.6406" y2="-0.25" transform="matrix(0 1 0.948843 -0.315748 16.8889 5.39091)" stroke="white" stroke-width="0.5"/>
<line y1="-0.25" x2="6.3203" y2="-0.25" transform="matrix(0 1 0.948843 -0.315748 14 11.5696)" stroke="white" stroke-width="0.5"/>
<line x1="11.25" y1="10" x2="11.25" y2="18" stroke="white" stroke-width="0.5"/>
<line y1="-0.25" x2="6.3203" y2="-0.25" transform="matrix(0 1 0.948843 -0.315748 8 12)" stroke="white" stroke-width="0.5"/>
</g>
</svg>
